<?xml version="1.0" standalone="no"?>
<!DOCTYPE svg PUBLIC "-//W3C//DTD SVG 1.0//EN" "http://www.w3.org/TR/2001/REC-SVG-20010904/DTD/svg10.dtd">
<svg xmlns="http://www.w3.org/2000/svg" xmlns:xlink="http://www.w3.org/1999/xlink" id="body_1" width="169" height="107">

<defs>
		<clipPath  id="1">

			<path  clip-rule="evenodd" transform="matrix(2.105919 -0 -0 1.3333333 -48.962616 -0)" d="M23.25 0L103.5 0L103.5 80.25L23.25 80.25z" />		</clipPath>
</defs>

<g transform="matrix(1.3333334 0 0 1.3333334 0 0)">
	<path  d="M0 0L126.75 0L126.75 80.25L0 80.25z" stroke="none"  fill="#FFFFFF" fill-rule="evenodd" />
	<g transform="matrix(0.4748521 0 0 0.75 23.25 0)" clip-path="url(#1)" >
		<g transform="matrix(1 0 0 1 0 0)">
			<path  d="M13 0C 10.8008 0 9 1.80078 9 4C 9 5.48047 9.82812 6.77734 11.0312 7.46875C 11.0117 7.64453 11 7.81641 11 8C 11 10.75 13.25 13 16 13C 18.75 13 21 10.75 21 8C 21 5.55078 19.207 3.48047 16.875 3.0625C 16.4531 1.30859 14.8789 0 13 0zM13 2C 13.8125 2 14.4961 2.47266 14.8125 3.15625C 13.5039 3.48047 12.3945 4.33594 11.7188 5.46875C 11.2891 5.10938 11 4.60938 11 4C 11 2.88281 11.8828 2 13 2zM16 5C 17.668 5 19 6.33203 19 8C 19 9.66797 17.668 11 16 11C 14.332 11 13 9.66797 13 8C 13 6.33203 14.332 5 16 5zM7.46875 12C 4.27344 12 0.03125 13.75 0.03125 13.75L0.03125 13.75L0.78125 15.625C 0.78125 15.625 5.07812 14 7.46875 14C 8.4375 14 10.0898 14.5938 11.4375 15.2812C 12.1094 15.625 12.7109 15.9844 13.1562 16.2812C 13.3789 16.4297 13.5664 16.5625 13.6875 16.6562C 13.7461 16.7031 13.7891 16.7578 13.8125 16.7812L13.8125 16.7812L13.9688 17C 14.0469 17.2227 14.0234 17.4727 13.875 17.6875C 13.6836 17.957 13.3438 18.0625 13.0312 17.9688L13.0312 17.9688L13 17.9688L8.65625 15.875L7.8125 17.6875L12.25 19.8125L12.2812 19.8125L12.3438 19.8438C 13.5 20.25 14.793 19.8477 15.5 18.8438C 15.8984 18.2773 16.0156 17.6133 15.9375 16.9688L15.9375 16.9688L20.75 16.1562C 21.2812 16.0664 21.7695 16.3984 21.9375 16.9062C 22.1172 17.4453 21.8633 17.9922 21.3438 18.2188C 19.8789 18.8633 17.5234 19.8281 15.4062 20.625C 14.3477 21.0234 13.3359 21.375 12.5625 21.625C 12.1758 21.75 11.8398 21.8438 11.5938 21.9062C 11.3477 21.9688 11.1484 22 11.25 22C 11.3125 22 10.9102 21.9102 10.4375 21.6562C 9.96484 21.4023 9.37109 21.0312 8.78125 20.6562C 8.19141 20.2812 7.58203 19.9023 7 19.5938C 6.41797 19.2852 5.89453 19 5.1875 19C 3.55078 19 2.09375 19.625 2.09375 19.625L2.09375 19.625L2.875 21.4688C 2.875 21.4688 4.09766 21 5.1875 21C 5.16016 21 5.58594 21.0898 6.0625 21.3438C 6.53906 21.5977 7.12891 21.9688 7.71875 22.3438C 8.30859 22.7188 8.89844 23.0977 9.46875 23.4062C 10.0391 23.7148 10.5391 24 11.25 24C 11.5898 24 11.7852 23.9258 12.0938 23.8438C 12.4023 23.7617 12.7773 23.6641 13.1875 23.5312C 14.0078 23.2656 15.0156 22.9062 16.0938 22.5C 18.2461 21.6914 20.6328 20.7344 22.1562 20.0625C 23.6016 19.4258 24.3438 17.7461 23.8438 16.25C 23.3672 14.8203 21.8945 13.9414 20.4062 14.1875L20.4062 14.1875L14.9375 15.0938C 14.9336 15.0898 14.9141 15.0977 14.9062 15.0938C 14.875 15.0703 14.8438 15.0234 14.8125 15L14.8125 15L14.5312 14.7812L14.5312 14.8125C 14.4453 14.75 14.3828 14.6914 14.2812 14.625C 13.7617 14.2812 13.0859 13.8789 12.3438 13.5C 10.8555 12.7422 9.10938 12 7.46875 12z" stroke="none"  fill="#FF7622" fill-rule="nonzero" />
		</g>
	</g>
</g>
</svg>
