<?xml version="1.0" standalone="no"?>
<!DOCTYPE svg PUBLIC "-//W3C//DTD SVG 1.0//EN" "http://www.w3.org/TR/2001/REC-SVG-20010904/DTD/svg10.dtd">
<svg xmlns="http://www.w3.org/2000/svg" xmlns:xlink="http://www.w3.org/1999/xlink" id="body_1" width="169" height="109">

<defs>
		<clipPath  id="1">

			<path  clip-rule="evenodd" transform="matrix(1.3333333 -0 -0 2.518456 -0 -48.44189)" d="M0 19.234756L126.75 19.234756L126.75 62.515244L0 62.515244z" />		</clipPath>
</defs>

<g transform="matrix(1.3333334 0 0 1.3333334 0 0)">
	<path  d="M0 0L126.75 0L126.75 81.75L0 81.75z" stroke="none"  fill="#FFFFFF" fill-rule="evenodd" />
	<g transform="matrix(0.75 0 0 0.39706868 0 19.234756)" clip-path="url(#1)" >
		<g transform="matrix(1 0 0 1 0 0)">
			<path  d="M17.6578 13.6519L14.3369 13.6519L16.4124 0.896379L19.7337 0.896379L17.6578 13.6519zM11.5432 0.896379L8.37716 9.6697L8.00252 7.78046L6.88542 2.04486C 6.88542 2.04486 6.75031 0.896379 5.3101 0.896379L5.3101 0.896379L0.0760648 0.896379L0.0146484 1.11236C 0.0146484 1.11236 1.61522 1.44537 3.48842 2.57031L3.48842 2.57031L6.37362 13.6522L9.83374 13.6522L15.1172 0.896379L11.5432 0.896379zM37.6638 13.6519L40.7132 13.6519L38.0545 0.896038L35.385 0.896038C 34.1522 0.896038 33.8519 1.84663 33.8519 1.84663L33.8519 1.84663L28.8991 13.6519L32.3609 13.6519L33.0532 11.7572L37.2749 11.7572L37.6638 13.6519zM34.0096 9.13981L35.7545 4.3664L36.7361 9.13981L34.0096 9.13981zM29.1587 3.96378L29.6326 1.22461C 29.6326 1.22461 28.1703 0.668457 26.6458 0.668457C 24.9978 0.668457 21.0842 1.38873 21.0842 4.89117C 21.0842 8.18649 25.6774 8.22744 25.6774 9.95835C 25.6774 11.6893 21.5574 11.3791 20.1977 10.2876L20.1977 10.2876L19.704 13.1517C 19.704 13.1517 21.1869 13.8719 23.4525 13.8719C 25.7187 13.8719 29.1376 12.6985 29.1376 9.5049C 29.1376 6.18842 24.503 5.87963 24.503 4.43771C 24.5034 2.99545 27.7376 3.18072 29.1587 3.96378z" stroke="none"  fill="#2566AF" fill-rule="nonzero" />
		</g>
	</g>
</g>
</svg>
