<?xml version="1.0" standalone="no"?>
<!DOCTYPE svg PUBLIC "-//W3C//DTD SVG 1.0//EN" "http://www.w3.org/TR/2001/REC-SVG-20010904/DTD/svg10.dtd">
<svg xmlns="http://www.w3.org/2000/svg" xmlns:xlink="http://www.w3.org/1999/xlink" id="body_1" width="169" height="107">

<defs>
		<clipPath  id="1">

			<path  clip-rule="evenodd" transform="matrix(2.105919 -0 -0 1.3333333 -48.962616 -0)" d="M23.25 0L103.5 0L103.5 80.25L23.25 80.25z" />		</clipPath>
</defs>

<g transform="matrix(1.3333334 0 0 1.3333334 0 0)">
	<path  d="M0 0L126.75 0L126.75 80.25L0 80.25z" stroke="none"  fill="#FFFFFF" fill-rule="evenodd" />
	<g transform="matrix(0.4748521 0 0 0.75 23.25 0)" clip-path="url(#1)" >
		<g transform="matrix(1 0 0 1 0 0)">
			<path  d="M18.7 13.767L18.705 13.769C 18.809 13.326 19.187 13 19.66 13L19.66 13L33.132 13C 33.149 13 33.166 12.993 33.183 12.994C 32.896 8.215 28.887 6 25.35 6L25.35 6L11.878 6C 11.404 6 11.026 6.335 10.923 6.777L10.923 6.777L10.918 6.775L5.029 33.813L5.042 33.814C 5.028 33.878 5.003 33.939 5.003 34.008C 5.003 34.561 5.45 34.999 6.003 34.999L6.003 34.999L14.073999 34.999L18.7 13.767z" stroke="none"  fill="#1565C0" fill-rule="nonzero" />
			<path  d="M33.183 12.994C 33.236 13.870001 33.177998 14.823 32.954 15.876C 31.672998 21.871 27.041998 24.991001 21.318998 24.991001C 21.318998 24.991001 17.848999 24.991001 17.005999 24.991001C 16.484999 24.991001 16.238998 25.297 16.126 25.531002L16.126 25.531002L14.386 33.58L14.080999 35.009003L14.075 35.009003L12.812 40.805004L12.825 40.806004C 12.811 40.870003 12.786 40.931004 12.786 41.000004C 12.786 41.553005 13.233 42.000004 13.786 42.000004L13.786 42.000004L21.119 42.000004L21.132 41.990005C 21.604 41.983006 21.979 41.646004 22.077 41.202007L22.077 41.202007L22.095 41.187008L23.907 32.771008C 23.907 32.771008 24.032999 31.968008 24.876999 31.968008C 25.720999 31.968008 29.054998 31.968008 29.054998 31.968008C 34.778 31.968008 39.455997 28.862007 40.738 22.866009C 42.18 16.106 37.358 13.019 33.183 12.994z" stroke="none"  fill="#039BE5" fill-rule="nonzero" />
			<path  d="M19.66 13C 19.185999 13 18.808 13.326 18.705 13.769L18.705 13.769L18.7 13.767L16.125 25.532001C 16.238 25.298002 16.484 24.992 17.005 24.992C 17.848999 24.992 21.24 24.992 21.24 24.992C 26.963 24.992 31.672 21.872002 32.953 15.877001C 33.177998 14.824001 33.235 13.871 33.182 12.995001C 33.166 12.993 33.148 13 33.132 13L33.132 13L19.66 13z" stroke="none"  fill="#283593" fill-rule="nonzero" />
		</g>
	</g>
</g>
</svg>
